# xmcd
#
# Track frame offsets:
#	187
#	15237
#	32345
#	48280
#	64945
#	77280
#	90452
#	103830
#	119582
#	132600
#	144202
#	155012
#	168747
#	180582
#	195805
#	212755
#	225995
#	238515
#	249477
#
# Disc length: 3477
#
# Revision: 2
# Processed by: cddbd v1.5.1PL0 Copyright (c) Steve Scherf et al.
# Submitted via: audiograbber 1.80
# Normalized: r1:DSETVAR1
#
DISCID=ec0d9313
DTITLE=Various Artist - Country Songs That Will Live Forever [CD4]
DYEAR=1900
DGENRE=
TTITLE0=Alabama - Love In The First Degree
TTITLE1=Roy Drusky - One Day At A Time
TTITLE2=Clint Black - Nobody's Home
TTITLE3=The Judds - Cry Myself To Sleep
TTITLE4=Donna Fargo - But You Know I Love You
TTITLE5=The Oak Ridge Boys - No Matter How High
TTITLE6=Lee Greenwood - Heart's Aren't Made To Break (They're Made To Love)
TTITLE7=George Strait - What's Going On In Your World
TTITLE8=Reba McEntire - Angel In Your Arms
TTITLE9=Patti Page - On The Road Again
TTITLE10=Hank Williams Jr With The Mike Curb Congregation - Make The World Go Away
TTITLE11=Baillie And The Boys - (Now And Then There's) A Fool Such As I
TTITLE12=Mel Tillis And The Statesiders - Welcome To My World
TTITLE13=Barbara Mandrell With Ray Price - Crazy Arms
TTITLE14=Skeeter Davis - It Wasn't God Who Made Honky Tonk Angels
TTITLE15=Sawyer Brown - The Race Is On
TTITLE16=Loretta Lynn - I Fall To Pieces
TTITLE17=Waylon Jennings - I've Got A Tiger By The Tail
TTITLE18=Conway Twitty - There Stands The Glass
EXTD=
EXTT0=
EXTT1=
EXTT2=
EXTT3=
EXTT4=
EXTT5=
EXTT6=
EXTT7=
EXTT8=
EXTT9=
EXTT10=
EXTT11=
EXTT12=
EXTT13=
EXTT14=
EXTT15=
EXTT16=
EXTT17=
EXTT18=
PLAYORDER=
